<svg height="512pt" viewBox="-16 0 511 512" width="512pt" xmlns="http://www.w3.org/2000/svg"><path d="m43.371094 14.640625c4.402344 4.871094 5.921875 11.28125 4.71875 17.28125-.804688 4.078125-2.878906 8-6.238282 10.957031-3.359374 3.042969-7.519531 4.722656-11.679687 5.042969-6 .476563-12.242187-1.683594-16.558594-6.5625-7.363281-8.238281-6.722656-20.878906 1.519531-28.238281 8.238282-7.359375 20.871094-6.722656 28.238282 1.519531zm0 0" fill="#ffce54"/><path d="m111.683594 102.960938 38.246094-34.242188 4.074218 28.5625-23.351562 20.878906-23.839844 21.351563-23.28125 20.886719-28-7.199219 38.242188-34.238281zm0 0" fill="#ffce54"/><path d="m465.851562 13.121094c8.238282 7.359375 8.878907 20 1.519532 28.238281-4.320313 4.878906-10.558594 7.039063-16.558594 6.5625-4.167969-.320313-8.320312-2-11.679688-5.042969-3.359374-2.957031-5.449218-6.878906-6.242187-10.957031-1.199219-6 .320313-12.410156 4.722656-17.28125 7.359375-8.242187 20-8.878906 28.238281-1.519531zm0 0" fill="#ffce54"/><path d="m79.371094 66.878906-31.28125-34.957031c-.804688 4.078125-2.878906 8-6.238282 10.957031-3.359374 3.042969-7.519531 4.722656-11.679687 5.042969l15.28125 17.117187 22.636719 25.28125 25.683594 28.640626 17.910156-16-9.679688-10.808594zm0 0" fill="#656d78"/><path d="m439.132812 42.878906c-3.359374-2.957031-5.449218-6.878906-6.242187-10.957031l-31.277344 34.957031-22.640625 25.273438-9.679687 10.808594 17.917969 16 25.679687-28.640626 22.640625-25.359374 15.28125-17.039063c-4.160156-.320313-8.320312-2-11.679688-5.042969zm0 0" fill="#656d78"/><path d="m369.292969 102.960938 17.917969 16 38.242187 34.238281-28 7.199219-23.28125-20.886719-23.847656-21.351563-23.351563-20.878906 4.078125-28.5625zm0 0" fill="#ffce54"/><path d="m274.410156 286.078125c-8.726562-8.71875-20.726562-14.078125-33.917968-14.078125v-128c16.238281 13.832031 37.597656 23.761719 59.191406 30.878906 11.769531 3.832032 23.601562 6.875 34.640625 9.191406 32.246093 6.730469 58.167969 7.929688 58.167969 7.929688 0 50.160156-5.199219 92.398438-13.601563 128h-90.398437c0-13.199219-5.359376-25.199219-14.082032-33.921875zm0 0" fill="#656d78"/><path d="m206.570312 286.078125c8.722657-8.71875 20.722657-14.078125 33.921876-14.078125 13.191406 0 25.191406 5.359375 33.917968 14.078125 8.722656 8.722656 14.082032 20.722656 14.082032 33.921875s-5.359376 25.199219-14.082032 33.921875c-8.726562 8.71875-20.726562 14.078125-33.917968 14.078125-13.199219 0-25.199219-5.359375-33.921876-14.078125-8.71875-8.722656-14.078124-20.722656-14.078124-33.921875s5.359374-25.199219 14.078124-33.921875zm0 0" fill="#ffce54"/><path d="m240.492188 144v128c-13.199219 0-25.199219 5.359375-33.921876 14.078125-8.71875 8.722656-14.078124 20.722656-14.078124 33.921875h-90.402344c-8.40625-35.601562-13.597656-77.839844-13.597656-128 0 0 25.917968-1.199219 58.160156-7.921875 11.039062-2.316406 22.878906-5.359375 34.640625-9.191406 21.597656-7.054688 42.957031-16.964844 59.199219-30.886719zm0 0" fill="#ed5565"/><path d="m206.570312 353.921875c8.722657 8.71875 20.722657 14.078125 33.921876 14.078125v136s-61.039063-16.078125-105.761719-97.121094c-5.277344-9.519531-10.320313-19.917968-14.957031-31.277344-6.722657-16.402343-12.800782-34.882812-17.683594-55.601562h90.402344c0 13.199219 5.359374 25.199219 14.078124 33.921875zm0 0" fill="#656d78"/><path d="m274.410156 353.921875c8.722656-8.722656 14.082032-20.722656 14.082032-33.921875h90.398437c-4.878906 20.71875-10.960937 39.199219-17.679687 55.601562-4.640626 11.359376-9.679688 21.757813-14.960938 31.277344-44.71875 81.042969-105.757812 97.121094-105.757812 97.121094v-136c13.191406 0 25.191406-5.359375 33.917968-14.078125zm0 0" fill="#ed5565"/><g fill="#e6e9ed"><path d="m361.210938 375.601562 87.039062 97.359376-1.277344 22.640624-22.640625-1.28125-78.082031-87.441406c5.28125-9.519531 10.320312-19.917968 14.960938-31.277344zm0 0"/><path d="m374.171875 139.511719-39.761719 44.320312-.085937.238281c-11.039063-2.316406-22.871094-5.359374-34.640625-9.191406l.089844-.320312 50.550781-56.40625zm0 0"/><path d="m181.210938 174.558594.082031.320312c-11.761719 3.832032-23.601563 6.875-34.640625 9.191406l-.082032-.238281-39.757812-44.320312 23.832031-21.359375zm0 0"/><path d="m134.730469 406.878906-78.078125 87.441406-22.640625 1.28125-1.28125-22.640624 87.042969-97.359376c4.636718 11.359376 9.679687 21.757813 14.957031 31.277344zm0 0"/></g><path d="m391.972656 191.96875c-.058594 0-.066406 0-.128906 0-1.9375-.113281-8.601562-.527344-18.328125-1.632812-.007813-.007813-.015625-.007813-.015625-.007813-3.886719-.441406-8.25-.984375-13-1.671875h-.015625c-.050781 49.886719-5.234375 95.902344-13.59375 131.34375h32c8.402344-35.601562 13.601563-77.839844 13.601563-128 0 0-.207032-.007812-.519532-.03125zm0 0" fill="#434a54"/><path d="m329.210938 375.601562c-4.640626 11.359376-9.679688 21.757813-14.960938 31.277344-23.871094 43.273438-52.359375 67.953125-73.757812 81.617188v15.503906s61.039062-16.078125 105.757812-97.121094c5.28125-9.519531 10.320312-19.917968 14.960938-31.277344 6.71875-16.402343 12.800781-34.882812 17.679687-55.601562h-32c-4.886719 20.71875-10.960937 39.199219-17.679687 55.601562zm0 0" fill="#da4453"/><path d="m224.492188 497.550781c.023437.007813.046874.023438.0625.035157.609374.292968 1.167968.542968 1.746093.820312.984375.472656 1.941407.90625 2.839844 1.304688.621094.273437 1.261719.5625 1.839844.808593 1.085937.464844 2.101562.878907 3.015625 1.234375.574218.222656 1.09375.421875 1.589844.605469.503906.175781.984374.359375 1.410156.503906.527344.183594 1 .351563 1.414062.488281.433594.144532.867188.289063 1.160156.375.203126.066407.386719.121094.511719.160157.160157.042969.410157.113281.410157.113281v-15.503906c-5.960938 3.808594-11.402344 6.808594-16 9.054687zm0 0" fill="#434a54"/><path d="m240.484375 512c-3.542969 0-6.785156-2.375-7.730469-5.960938-1.125-4.269531 1.425782-8.648437 5.699219-9.773437 1.4375-.394531 146.039063-42.417969 146.039063-304.265625 0-4.425781 3.574218-8 8-8 4.421874 0 8 3.574219 8 8 0 275.007812-151.511719 318.039062-157.960938 319.734375-.6875.175781-1.367188.265625-2.046875.265625zm0 0"/><path d="m392.5 200c-.128906 0-.242188 0-.367188-.007812-4.25-.191407-104.6875-5.214844-156.839843-49.914063-3.363281-2.878906-3.753907-7.925781-.875-11.277344 2.890625-3.367187 7.945312-3.738281 11.28125-.871093 48.015625 41.160156 146.167969 46.039062 147.160156 46.085937 4.417969.199219 7.832031 3.9375 7.632813 8.351563-.199219 4.28125-3.746094 7.632812-7.992188 7.632812zm0 0"/><path d="m240.5 512c-.679688 0-1.359375-.089844-2.046875-.265625-6.449219-1.695313-157.960937-44.726563-157.960937-319.734375 0-4.425781 3.574218-8 8-8 4.421874 0 8 3.574219 8 8 0 262.792969 144.574218 303.878906 146.039062 304.265625 4.273438 1.125 6.824219 5.503906 5.695312 9.773437-.941406 3.585938-4.183593 5.960938-7.726562 5.960938zm0 0"/><path d="m88.484375 200c-4.25 0-7.792969-3.34375-7.984375-7.640625-.191406-4.40625 3.214844-8.152344 7.632812-8.351563.984376-.046874 99.199219-4.984374 147.160157-46.085937 3.351562-2.859375 8.398437-2.496094 11.277343.871094 2.875 3.351562 2.488282 8.398437-.871093 11.277343-52.160157 44.699219-152.589844 49.722657-156.839844 49.914063-.136719.015625-.246094.015625-.375.015625zm0 0"/><path d="m56.621094 502.34375c-1.898438 0-3.808594-.671875-5.328125-2.03125-3.296875-2.945312-3.578125-8-.640625-11.296875l78.078125-87.421875c2.953125-3.3125 8.015625-3.570312 11.296875-.640625 3.296875 2.941406 3.574218 8 .640625 11.292969l-78.082031 87.425781c-1.589844 1.777344-3.773438 2.671875-5.964844 2.671875zm0 0"/><path d="m334.425781 191.871094c-1.902343 0-3.8125-.671875-5.335937-2.039063-3.285156-2.945312-3.566406-8.007812-.621094-11.296875l39.726562-44.382812c2.945313-3.289063 8.023438-3.566406 11.296876-.625 3.289062 2.945312 3.566406 8.007812.625 11.296875l-39.730469 44.382812c-1.574219 1.769531-3.757813 2.664063-5.960938 2.664063zm0 0"/><path d="m32.761719 481c-1.894531 0-3.804688-.671875-5.328125-2.03125-3.292969-2.945312-3.574219-8.007812-.636719-11.296875l87-97.375c2.957031-3.304687 8.007813-3.570313 11.292969-.640625 3.296875 2.945312 3.578125 8.007812.640625 11.296875l-87 97.375c-1.582031 1.777344-3.765625 2.671875-5.96875 2.671875zm0 0"/><path d="m299.753906 182.601562c-1.902344 0-3.8125-.671874-5.335937-2.042968-3.285157-2.941406-3.566407-8.007813-.621094-11.292969l50.550781-56.464844c2.953125-3.296875 8.023438-3.5625 11.296875-.625 3.285157 2.945313 3.566407 8.007813.621094 11.296875l-50.550781 56.464844c-1.574219 1.765625-3.757813 2.664062-5.960938 2.664062zm0 0"/><path d="m397.484375 168.375c-1.90625 0-3.816406-.671875-5.335937-2.039062l-70.503907-63.121094c-3.289062-2.941406-3.570312-8.007813-.625-11.292969 2.953125-3.296875 8.023438-3.570313 11.296875-.625l70.503906 63.117187c3.289063 2.945313 3.566407 8.011719.625 11.296876-1.578124 1.769531-3.769531 2.664062-5.960937 2.664062zm0 0"/><path d="m397.476562 168.375c-3.5625 0-6.808593-2.390625-7.746093-6-1.101563-4.277344 1.480469-8.640625 5.753906-9.75l27.925781-7.199219c4.296875-1.074219 8.640625 1.46875 9.753906 5.75 1.101563 4.28125-1.480468 8.640625-5.753906 9.753907l-27.925781 7.199218c-.671875.167969-1.34375.246094-2.007813.246094zm0 0"/><path d="m326.996094 105.257812c-.375 0-.761719-.027343-1.144532-.082031-4.375-.632812-7.417968-4.679687-6.792968-9.054687l4.097656-28.5625c.632812-4.367188 4.710938-7.390625 9.054688-6.789063 4.375.628907 7.417968 4.679688 6.792968 9.054688l-4.097656 28.558593c-.582031 4-4 6.875-7.910156 6.875zm0 0"/><path d="m425.410156 161.167969c-1.902344 0-3.816406-.671875-5.335937-2.039063l-94.335938-84.472656c-3.285156-2.945312-3.566406-8.007812-.621093-11.296875 2.949218-3.296875 8.023437-3.558594 11.292968-.625l94.335938 84.480469c3.289062 2.945312 3.570312 8.007812.625 11.296875-1.574219 1.761719-3.757813 2.65625-5.960938 2.65625zm0 0"/><path d="m387.1875 126.9375c-1.902344 0-3.816406-.671875-5.335938-2.042969-3.289062-2.941406-3.566406-8.007812-.625-11.292969l63.585938-71.015624c2.941406-3.296876 8.023438-3.5625 11.296875-.625 3.285156 2.941406 3.566406 8.007812.621094 11.296874l-63.582031 71.015626c-1.578126 1.765624-3.769532 2.664062-5.960938 2.664062zm0 0"/><path d="m369.316406 110.9375c-1.898437 0-3.808594-.671875-5.335937-2.042969-3.289063-2.941406-3.570313-8-.625-11.292969l63.574219-71.042968c2.9375-3.292969 8-3.566406 11.296874-.621094 3.289063 2.941406 3.570313 8 .625 11.292969l-63.574218 71.042969c-1.585938 1.765624-3.769532 2.664062-5.960938 2.664062zm0 0"/><path d="m452.492188 56c-.007813 0 0 0 0 0-6.90625 0-13.527344-2.535156-18.671876-7.152344-5.5625-4.96875-8.855468-11.832031-9.273437-19.296875-.40625-7.472656 2.113281-14.648437 7.097656-20.214843 5.296875-5.929688 12.894531-9.335938 20.863281-9.335938 6.886719 0 13.519532 2.535156 18.671876 7.144531 11.503906 10.3125 12.480468 28.046875 2.175781 39.527344-5.304688 5.929687-12.910157 9.328125-20.863281 9.328125zm.015624-40c-3.417968 0-6.671874 1.464844-8.9375 3.992188-2.144531 2.398437-3.214843 5.480468-3.046874 8.679687.175781 3.191406 1.585937 6.136719 3.96875 8.257813 4.765624 4.269531 12.695312 3.832031 16.941406-.929688 4.417968-4.921875 3.992187-12.519531-.925782-16.9375-2.199218-1.972656-5.046874-3.0625-8-3.0625zm0 0"/><path d="m34.003906 503.59375c-4.214844 0-7.746094-3.296875-7.976562-7.554688-.246094-4.414062 3.136718-8.183593 7.535156-8.429687l22.601562-1.25c4.472657-.480469 8.183594 3.136719 8.429688 7.535156.25 4.417969-3.132812 8.183594-7.535156 8.433594l-22.597656 1.246094c-.152344.019531-.304688.019531-.457032.019531zm0 0"/><path d="m34.003906 503.59375c-4.214844 0-7.746094-3.296875-7.976562-7.554688l-1.246094-22.589843c-.25-4.417969 3.132812-8.183594 7.535156-8.433594 4.648438-.28125 8.183594 3.136719 8.429688 7.535156l1.25 22.59375c.246094 4.414063-3.136719 8.183594-7.535156 8.429688-.152344.011719-.304688.019531-.457032.019531zm0 0"/><path d="m378.957031 100.160156c-4.21875 0-7.746093-3.296875-7.976562-7.550781-.25-4.417969 3.136719-8.183594 7.535156-8.433594l33.878906-1.871093c4.511719-.496094 8.183594 3.136718 8.433594 7.535156.246094 4.417968-3.136719 8.183594-7.535156 8.433594l-33.882813 1.871093c-.160156.015625-.3125.015625-.453125.015625zm0 0"/><path d="m401.585938 74.863281c-4.214844 0-7.742188-3.296875-7.972657-7.550781-.25-4.417969 3.132813-8.183594 7.535157-8.433594l33.894531-1.871094c4.617187-.253906 8.175781 3.136719 8.433593 7.535157.246094 4.417969-3.136718 8.183593-7.535156 8.433593l-33.898437 1.871094c-.160157.007813-.3125.015625-.457031.015625zm0 0"/><path d="m424.363281 502.34375c-2.191406 0-4.382812-.894531-5.96875-2.671875l-78.078125-87.425781c-2.9375-3.292969-2.65625-8.351563.640625-11.292969 3.277344-2.929687 8.34375-2.671875 11.292969.640625l78.082031 87.421875c2.933594 3.296875 2.65625 8.351563-.640625 11.296875-1.519531 1.359375-3.425781 2.03125-5.328125 2.03125zm0 0"/><path d="m146.554688 191.871094c-2.191407 0-4.382813-.894532-5.960938-2.664063l-39.726562-44.382812c-2.945313-3.289063-2.664063-8.351563.625-11.296875 3.28125-2.941406 8.351562-2.664063 11.296874.625l39.726563 44.382812c2.945313 3.289063 2.664063 8.351563-.625 11.296875-1.527344 1.367188-3.4375 2.039063-5.335937 2.039063zm0 0"/><path d="m448.21875 481c-2.191406 0-4.382812-.894531-5.96875-2.671875l-87-97.375c-2.933594-3.289063-2.65625-8.351563.640625-11.296875 3.289063-2.929688 8.335937-2.664062 11.296875.640625l87 97.375c2.9375 3.289063 2.65625 8.351563-.640625 11.296875-1.527344 1.359375-3.429687 2.03125-5.328125 2.03125zm0 0"/><path d="m181.226562 182.601562c-2.191406 0-4.382812-.898437-5.960937-2.664062l-50.550781-56.464844c-2.941406-3.289062-2.664063-8.351562.625-11.296875 3.28125-2.945312 8.351562-2.671875 11.296875.625l50.550781 56.464844c2.945312 3.285156 2.664062 8.351563-.625 11.292969-1.527344 1.371094-3.429688 2.042968-5.335938 2.042968zm0 0"/><path d="m83.5 168.375c-2.191406 0-4.382812-.894531-5.960938-2.664062-2.945312-3.285157-2.664062-8.351563.625-11.296876l70.503907-63.117187c3.273437-2.945313 8.351562-2.671875 11.296875.625 2.941406 3.285156 2.664062 8.351563-.625 11.292969l-70.503906 63.121094c-1.519532 1.367187-3.433594 2.039062-5.335938 2.039062zm0 0"/><path d="m83.507812 168.375c-.664062 0-1.335937-.078125-2.007812-.246094l-27.929688-7.199218c-4.269531-1.113282-6.847656-5.472657-5.75-9.753907 1.121094-4.28125 5.488282-6.832031 9.75-5.75l27.929688 7.199219c4.273438 1.109375 6.847656 5.472656 5.75 9.75-.933594 3.609375-4.183594 6-7.742188 6zm0 0"/><path d="m153.996094 105.257812c-3.914063 0-7.335938-2.875-7.914063-6.867187l-4.09375-28.558594c-.625-4.375 2.414063-8.425781 6.792969-9.054687 4.359375-.640625 8.421875 2.414062 9.054688 6.789062l4.09375 28.5625c.625 4.375-2.414063 8.421875-6.789063 9.054688-.394531.046875-.777344.074218-1.144531.074218zm0 0"/><path d="m55.570312 161.167969c-2.191406 0-4.382812-.894531-5.957031-2.664063-2.945312-3.289062-2.664062-8.351562.621094-11.296875l94.335937-84.472656c3.273438-2.941406 8.34375-2.679687 11.296876.625 2.945312 3.289063 2.664062 8.351563-.625 11.296875l-94.335938 84.480469c-1.527344 1.367187-3.429688 2.03125-5.335938 2.03125zm0 0"/><path d="m93.796875 126.9375c-2.195313 0-4.386719-.898438-5.960937-2.664062l-63.585938-71.015626c-2.941406-3.289062-2.664062-8.355468.625-11.296874 3.273438-2.9375 8.351562-2.671876 11.296875.625l63.582031 71.015624c2.945313 3.285157 2.664063 8.351563-.621094 11.292969-1.519531 1.371094-3.433593 2.042969-5.335937 2.042969zm0 0"/><path d="m111.667969 110.9375c-2.191407 0-4.382813-.898438-5.960938-2.664062l-63.574219-71.042969c-2.945312-3.292969-2.664062-8.351563.621094-11.292969 3.296875-2.945312 8.363282-2.671875 11.296875.621094l63.578125 71.042968c2.941406 3.292969 2.664063 8.351563-.625 11.292969-1.527344 1.371094-3.433594 2.042969-5.335937 2.042969zm0 0"/><path d="m28.5 56c-7.960938 0-15.570312-3.398438-20.871094-9.328125-10.296875-11.488281-9.320312-29.214844 2.167969-39.519531 11.117187-9.945313 29.671875-8.863282 39.542969 2.183594 4.984375 5.566406 7.503906 12.753906 7.09375 20.214843-.414063 7.472657-3.710938 14.328125-9.285156 19.3125-5.128907 4.601563-11.753907 7.136719-18.648438 7.136719zm-.023438-40c-2.953124 0-5.800781 1.089844-8 3.0625-4.921874 4.417969-5.34375 12.015625-.929687 16.9375 4.234375 4.742188 12.191406 5.191406 16.929687.945312 2.398438-2.144531 3.808594-5.082031 3.984376-8.273437.167968-3.199219-.90625-6.28125-3.050782-8.679687-2.261718-2.527344-5.519531-3.992188-8.933594-3.992188zm0 0"/><path d="m446.980469 503.59375c-.152344 0-.296875 0-.457031-.019531l-22.601563-1.246094c-4.40625-.238281-7.789063-4.015625-7.535156-8.433594.242187-4.40625 3.769531-8 8.433593-7.535156l22.597657 1.25c4.410156.238281 7.792969 4.015625 7.539062 8.429687-.242187 4.257813-3.761719 7.554688-7.976562 7.554688zm0 0"/><path d="m446.980469 503.59375c-.152344 0-.296875-.007812-.457031-.019531-4.40625-.238281-7.792969-4.015625-7.535157-8.429688l1.246094-22.59375c.242187-4.40625 3.816406-7.808593 8.433594-7.535156 4.40625.242187 7.792969 4.015625 7.535156 8.433594l-1.246094 22.589843c-.242187 4.257813-3.761719 7.554688-7.976562 7.554688zm0 0"/><path d="m102.027344 100.160156c-.152344 0-.296875 0-.457032-.015625l-33.878906-1.878906c-4.40625-.242187-7.792968-4.019531-7.535156-8.433594.238281-4.40625 3.71875-8.015625 8.429688-7.535156l33.882812 1.871094c4.40625.238281 7.789062 4.015625 7.535156 8.433593-.230468 4.253907-3.753906 7.558594-7.976562 7.558594zm0 0"/><path d="m79.394531 74.863281c-.152343 0-.296875 0-.453125-.015625l-33.898437-1.871094c-4.398438-.242187-7.785157-4.015624-7.535157-8.433593.238282-4.40625 3.839844-8.015625 8.433594-7.535157l33.894532 1.871094c4.40625.242188 7.792968 4.015625 7.535156 8.433594-.230469 4.253906-3.75 7.550781-7.976563 7.550781zm0 0"/><path d="m240.492188 512c-4.425782 0-8-3.574219-8-8v-136c0-4.425781 3.574218-8 8-8 4.421874 0 8 3.574219 8 8v136c0 4.425781-3.578126 8-8 8zm0 0"/><path d="m240.492188 280c-4.425782 0-8-3.574219-8-8v-128c0-4.425781 3.574218-8 8-8 4.421874 0 8 3.574219 8 8v128c0 4.425781-3.578126 8-8 8zm0 0"/><path d="m378.890625 328h-90.398437c-4.425782 0-8-3.574219-8-8s3.574218-8 8-8h90.398437c4.425781 0 8 3.574219 8 8s-3.574219 8-8 8zm0 0"/><path d="m192.492188 328h-90.402344c-4.421875 0-8-3.574219-8-8s3.578125-8 8-8h90.402344c4.421874 0 8 3.574219 8 8s-3.578126 8-8 8zm0 0"/><path d="m240.492188 376c-30.871094 0-56-25.128906-56-56s25.128906-56 56-56c30.871093 0 56 25.128906 56 56s-25.128907 56-56 56zm0-96c-22.058594 0-40 17.945312-40 40s17.941406 40 40 40c22.054687 0 40-17.945312 40-40s-17.945313-40-40-40zm0 0"/><path d="m206.554688 294.0625c-2.046876 0-4.09375-.78125-5.65625-2.34375l-28.285157-28.285156c-3.128906-3.128906-3.128906-8.1875 0-11.3125 3.125-3.128906 8.183594-3.128906 11.308594 0l28.289063 28.285156c3.128906 3.128906 3.128906 8.1875 0 11.3125-1.558594 1.5625-3.609376 2.34375-5.65625 2.34375zm0 0"/><path d="m302.707031 390.214844c-2.046875 0-4.09375-.78125-5.65625-2.34375l-28.277343-28.277344c-3.128907-3.128906-3.128907-8.1875 0-11.3125 3.125-3.128906 8.183593-3.128906 11.308593 0l28.28125 28.277344c3.128907 3.128906 3.128907 8.183594 0 11.3125-1.558593 1.570312-3.609375 2.34375-5.65625 2.34375zm0 0"/><path d="m178.265625 390.222656c-2.046875 0-4.09375-.78125-5.652344-2.34375-3.128906-3.125-3.128906-8.183594 0-11.3125l28.285157-28.285156c3.128906-3.128906 8.183593-3.128906 11.3125 0 3.128906 3.125 3.128906 8.183594 0 11.3125l-28.289063 28.285156c-1.566406 1.570313-3.605469 2.34375-5.65625 2.34375zm0 0"/><path d="m274.425781 294.0625c-2.046875 0-4.09375-.78125-5.652343-2.34375-3.128907-3.125-3.128907-8.183594 0-11.3125l28.277343-28.277344c3.128907-3.128906 8.183594-3.128906 11.3125 0 3.128907 3.128906 3.128907 8.183594 0 11.3125l-28.28125 28.277344c-1.558593 1.5625-3.605469 2.34375-5.65625 2.34375zm0 0"/></svg>